<svg xmlns="http://www.w3.org/2000/svg" viewBox="0 0 96.69 77.22"><title>De</title><path id="De" class="cls-1" d="M12.83.09C21.55.73,30.6,1.9,36.75,5.68a33.36,33.36,0,0,1,6.48,5.7,40.36,40.36,0,0,1,10,31.7c-1.38,11.76-4.44,17.42-13.13,24.1-7.36,5.62-13.51,8.93-25.65,9.95-4.82.4-6.26-.51-7-3.4C6.21,58.49,5.2,46.34,2.86,29.43,1.28,16.7-4.39,2.59,6.68.14A39.4,39.4,0,0,1,12.83.09Zm4.59,51.5C18,56,18.35,62,20.06,63.1c13.68-.25,22.78-13,20.78-28.73A25.73,25.73,0,0,0,30,16.89c-3.3-2.2-11.52-5.26-15.86-2.86-1.79,1-.38,7.63.13,11.73C15.47,35.55,16.36,42.48,17.42,51.59ZM81.7,56.71c6.87.19,8.68-5.64,12.85-4a4.67,4.67,0,0,1,1.2,6.72C91.37,64,81.91,67,76.38,65.21,67.79,63.38,64.7,61,60.58,53.35c-3.4-8.17-3.43-14.59-1-19.51,1.58-4.88,5.34-9.53,9.08-11.43,9.09-5.1,17.71-3.68,23.75,5.54a21.23,21.23,0,0,1,3.32,6.55c.68,2.63-.6,6.33-3.11,7.7-4.17,2.38-6.19,4.17-10.51,6.28-2.91,1.44-6.75,3.35-9,4.57C74.46,56.17,77.19,56.6,81.7,56.71ZM69.18,43.84c1.84,0,7.52-3.08,10.85-4.39,2.19-.9,4.75-3.1,5-4.87-3.92-7-9.93-6.38-15.25-.22C67.53,36.89,68.07,42.21,69.18,43.84Z"></path></svg>
