<svg xmlns="http://www.w3.org/2000/svg" viewBox="0 0 122.12 53.19"><title>Meh</title><path id="Meh" class="cls-1" d="M14.05,2.73,24.2,46.55,49.63,2.73h5.64L46.62,52.5H42.45l3.8-21.84L50.31,9.13,25,52.5H21.77L11.45,8.78,7.93,30.86,4.17,52.5H0L8.65,2.73ZM71.44,53.18a12.86,12.86,0,0,1-7.69-2.47A13.86,13.86,0,0,1,59,44.14a20.35,20.35,0,0,1-1.08-9L58,34a24.72,24.72,0,0,1,3-9.76,18.73,18.73,0,0,1,6.49-7.07A15,15,0,0,1,76,14.83a11.48,11.48,0,0,1,7,2.26,12.34,12.34,0,0,1,4.15,6.08,20.41,20.41,0,0,1,.82,8.62l-.27,2.49H62l-.1.82a16.22,16.22,0,0,0,.54,7.13A11.08,11.08,0,0,0,66,47.63a9.13,9.13,0,0,0,5.79,2.07,11.84,11.84,0,0,0,5.92-1.27,19,19,0,0,0,4.85-3.65l2.39,1.94a16.18,16.18,0,0,1-13.46,6.46Zm4.3-34.86a10.69,10.69,0,0,0-8,3.14,20.58,20.58,0,0,0-5.3,9.34l21.47,0,.1-.51A11.93,11.93,0,0,0,82.34,22,7.78,7.78,0,0,0,75.74,18.32Zm24.17,3.45q5.32-7.07,12.58-6.94,5.33.15,7.76,3.73T122,28.44l-4,24.06h-4l4-24.11a20.58,20.58,0,0,0,.07-3.75q-.58-6.08-6.63-6.25a11,11,0,0,0-6.7,2.13,18.75,18.75,0,0,0-5.47,6.64L94.82,52.5h-4L99.91,0h4Z"/></svg>
