<svg xmlns="http://www.w3.org/2000/svg" viewBox="0 0 156.94 87.13"><title>Pre</title><path id="Pre" class="cls-1" d="M62.59,50.45c-5.76,0-11.52-2.75-11.52-4.26a.89.89,0,0,1,.88-1c1.38,0,2.76,1.13,6.26,1.13C69.73,46.32,76,34.43,76,23.79c0-13.15-7.89-21-28.8-21-17.9,0-32.42,10.52-32.42,24.67,0,8.26,4.63,11.89,10.14,11.89,5.89,0,8-4.13,8.39-6.14.12-.62.25-1,.75-1s.75.5.75,1.63c0,5.51-4,14-13.52,14-8.26,0-16.4-5.88-16.4-15.52C4.88,11.64,27.42,0,50.82,0,74,0,89.51,7,89.51,23.28,89.51,40.93,75.11,50.45,62.59,50.45Zm-2.5-39.68c1.25-.76,1.75-1.13,1.75-1.63a.89.89,0,0,0-1-.88A6.56,6.56,0,0,0,58.21,9,25.7,25.7,0,0,0,47.57,18.9C36.05,37.18,34.93,76.49,12.64,76.49c-3.75,0-8.88-1.38-11-7.64-.25-.75-.38-1.13-.88-1.13S0,68.1,0,69.35c0,9.52,7.64,17.78,18.53,17.78,19.53,0,24.53-18.78,29.92-48.95,1.62-9,2.25-14.39,4.5-19A20.58,20.58,0,0,1,60.09,10.77Zm96.85,62.35c0,.58-.14.86-1.29,2-3.86,3.86-8.16,8-16.46,8-9.88,0-16.76-4.3-16.76-14.75,0-.08,0-.16,0-.25-5.69,7.33-14,15-21.48,15s-12-3.58-12-9c0-5.73,5.16-10.89,5.16-15.32,0-1.44-1.43-2.73-4.15-5.16-2,5.58-6.45,15.61-11.6,22.34-3.15,4.15-6.59,7.16-9.88,7.16-2.87,0-4.44-1.58-4.44-3.58a3.34,3.34,0,0,1,3.15-3.44c2.72,0,3.15.72,5,.72,1.58,0,3.29-1.44,4.3-2.72,3.72-4.44,9.3-14.47,12-21.77a11.54,11.54,0,0,1-3.72-8.16c0-4.58,3.29-7.59,6.3-7.59s4.73,1.72,4.73,5.16c0,2.86-1.87,5.29-2.87,7.3,0,2.72,14.46,2.29,14.46,8.3,0,3.87-3.72,8-3.72,14,0,3,2,4.29,4.73,4.29,4.25,0,10-5.28,14.38-11.3A25,25,0,0,1,147.2,44.06c6.59,0,8.74,3.15,8.74,6.44,0,8.45-11.46,14.46-18.19,16.9,0,5.44,3.44,9.16,8.74,9.16a12.63,12.63,0,0,0,8-3.15c.86-.72,1.29-1,1.72-1A.67.67,0,0,1,156.94,73.12Zm-19.19-8.3c6-1.86,15-7.88,15-13.18a3.12,3.12,0,0,0-3.29-3.43C143.91,48.21,137.75,56.66,137.75,64.82Zm-44.09-23c0-1.72-.57-2.72-1.86-2.72s-2.29,1.43-2.29,3.72a7.21,7.21,0,0,0,2,4.87S93.66,44.49,93.66,41.77Z"/></svg>
