<svg xmlns="http://www.w3.org/2000/svg" viewBox="0 0 337.58 66.8"><title>Scriptivism</title><path d="M28.29,39.14a5.32,5.32,0,0,0-2.08-4.52,27.1,27.1,0,0,0-7.49-3.33,53.61,53.61,0,0,1-8.56-3.45q-8.61-4.65-8.6-12.52A12.15,12.15,0,0,1,3.87,8a15,15,0,0,1,6.62-5,24.72,24.72,0,0,1,9.69-1.81,22.76,22.76,0,0,1,9.63,2A15.38,15.38,0,0,1,36.38,8.7a14.48,14.48,0,0,1,2.34,8.11H28.32a6.8,6.8,0,0,0-2.18-5.39A9,9,0,0,0,20,9.5a9.63,9.63,0,0,0-5.93,1.61A5.11,5.11,0,0,0,12,15.36a4.87,4.87,0,0,0,2.48,4.12,27.83,27.83,0,0,0,7.3,3.12q8.86,2.67,12.93,6.62a13.21,13.21,0,0,1,4,9.85,12.15,12.15,0,0,1-4.95,10.28q-5,3.72-13.35,3.73A25.66,25.66,0,0,1,9.81,50.94a16.75,16.75,0,0,1-7.3-5.84A15,15,0,0,1,0,36.5H10.43q0,8.37,10,8.36a9.69,9.69,0,0,0,5.79-1.51A4.89,4.89,0,0,0,28.29,39.14Zm31,5.86a6.57,6.57,0,0,0,4.51-1.53,5.29,5.29,0,0,0,1.8-4H75a12.92,12.92,0,0,1-2.08,7,13.76,13.76,0,0,1-5.6,4.93,17.63,17.63,0,0,1-7.85,1.75q-8.05,0-12.69-5.12T42.12,33.84v-.66q0-8.67,4.61-13.84c3.08-3.44,7.29-5.16,12.66-5.16q7,0,11.28,4A14.21,14.21,0,0,1,75,28.84h-9.4a6.82,6.82,0,0,0-1.8-4.75,6,6,0,0,0-4.58-1.83,6,6,0,0,0-5.28,2.55q-1.78,2.55-1.79,8.28v1c0,3.87.59,6.64,1.77,8.33A6.11,6.11,0,0,0,59.28,45Zm41.09-20.73A26.56,26.56,0,0,0,96.76,24q-5.69,0-7.45,3.85V52.38h-10V14.87h9.46L89,19.34q3-5.16,8.35-5.16a10.51,10.51,0,0,1,3.12.45Zm3.33-19.1a4.94,4.94,0,0,1,1.5-3.71,6.49,6.49,0,0,1,8.2,0,4.89,4.89,0,0,1,1.53,3.71,5,5,0,0,1-1.54,3.74,6.42,6.42,0,0,1-8.15,0A4.91,4.91,0,0,1,103.7,5.17Zm10.64,47.21h-10V14.87h10ZM154.94,34q0,8.67-3.94,13.89a12.6,12.6,0,0,1-10.62,5.22,11.66,11.66,0,0,1-9.19-4V66.8h-10V14.87h9.29l.35,3.68a11.74,11.74,0,0,1,9.5-4.37,12.71,12.71,0,0,1,10.78,5.13q3.84,5.13,3.85,14.14Zm-10-.76q0-5.25-1.86-8.1a6,6,0,0,0-5.39-2.85q-4.71,0-6.48,3.61V41.28c1.22,2.48,3.41,3.72,6.55,3.72Q144.91,45,144.92,33.21Zm24-27.56v9.22h6.41v7.35h-6.41V40.94a4.47,4.47,0,0,0,.79,3,4,4,0,0,0,3.05.91,16.08,16.08,0,0,0,2.95-.25v7.59a20.34,20.34,0,0,1-6.07.91q-10.53,0-10.74-10.65V22.22h-5.48V14.87h5.48V5.65Zm10.5-.48a4.91,4.91,0,0,1,1.51-3.71,6.49,6.49,0,0,1,8.2,0,4.89,4.89,0,0,1,1.53,3.71,4.92,4.92,0,0,1-1.55,3.74,6.42,6.42,0,0,1-8.15,0A5,5,0,0,1,179.38,5.17ZM190,52.38H180V14.87H190ZM210.9,40.14l7-25.27h10.46L215.68,52.38h-9.57L193.46,14.87h10.47Zm20.35-35a4.91,4.91,0,0,1,1.51-3.71,6.49,6.49,0,0,1,8.2,0,4.91,4.91,0,0,1,1.52,3.71,4.91,4.91,0,0,1-1.54,3.74,6.42,6.42,0,0,1-8.15,0A4.91,4.91,0,0,1,231.25,5.17Zm10.64,47.21h-10V14.87h10ZM269,42a3.24,3.24,0,0,0-1.82-2.9,21.08,21.08,0,0,0-5.84-1.89Q248,34.42,248,25.86a10.31,10.31,0,0,1,4.14-8.34q4.14-3.35,10.83-3.34,7.14,0,11.42,3.36a10.6,10.6,0,0,1,4.29,8.74h-10a4.88,4.88,0,0,0-1.39-3.56,5.88,5.88,0,0,0-4.33-1.4A6,6,0,0,0,259,22.46a3.62,3.62,0,0,0-1.39,2.92,3.08,3.08,0,0,0,1.58,2.68,16.13,16.13,0,0,0,5.32,1.77,44.27,44.27,0,0,1,6.31,1.68q7.94,2.91,7.94,10.09a9.78,9.78,0,0,1-4.4,8.3Q270,53.08,263,53.08a19.72,19.72,0,0,1-8.38-1.69,14,14,0,0,1-5.73-4.61,10.68,10.68,0,0,1-2.08-6.32h9.5a5.23,5.23,0,0,0,2,4.09A7.84,7.84,0,0,0,263.21,46a7.28,7.28,0,0,0,4.36-1.09A3.4,3.4,0,0,0,269,42ZM293.2,14.87l.31,4.2a13.2,13.2,0,0,1,10.79-4.89q7.24,0,9.95,5.72a12.88,12.88,0,0,1,11.26-5.72q6.11,0,9.09,3.55t3,10.7v24H327.52v-24a7.22,7.22,0,0,0-1.24-4.68c-.84-1-2.3-1.47-4.41-1.47a6.26,6.26,0,0,0-6.24,4.3l0,25.82h-10V28.44c0-2.18-.43-3.75-1.28-4.72s-2.32-1.46-4.37-1.46a6.49,6.49,0,0,0-6.17,3.54V52.38h-10V14.87Z"/></svg>
