<svg xmlns="http://www.w3.org/2000/svg" viewBox="0 0 295.91 66.81"><title>scriptivist</title><path d="M22.22,42a3.22,3.22,0,0,0-1.82-2.9,21,21,0,0,0-5.84-1.89Q1.18,34.42,1.18,25.86a10.32,10.32,0,0,1,4.14-8.34q4.14-3.35,10.84-3.34,7.14,0,11.42,3.36a10.62,10.62,0,0,1,4.28,8.74h-10a4.85,4.85,0,0,0-1.38-3.55,5.87,5.87,0,0,0-4.34-1.41,6,6,0,0,0-3.92,1.14,3.64,3.64,0,0,0-1.38,2.92,3.07,3.07,0,0,0,1.57,2.68,16.2,16.2,0,0,0,5.33,1.77A45,45,0,0,1,24,31.51Q32,34.42,32,41.6a9.76,9.76,0,0,1-4.4,8.3q-4.39,3.18-11.37,3.18A19.86,19.86,0,0,1,7.82,51.4a14.1,14.1,0,0,1-5.74-4.62A10.68,10.68,0,0,1,0,40.46H9.5a5.21,5.21,0,0,0,2,4.09A7.8,7.8,0,0,0,16.4,46a7.23,7.23,0,0,0,4.35-1.09A3.4,3.4,0,0,0,22.22,42Zm30.37,3a6.57,6.57,0,0,0,4.51-1.53,5.29,5.29,0,0,0,1.8-4h9.4a12.92,12.92,0,0,1-2.08,7,13.76,13.76,0,0,1-5.6,4.93,17.63,17.63,0,0,1-7.85,1.75q-8.06,0-12.69-5.12T35.43,33.84v-.66q0-8.67,4.61-13.84c3.08-3.44,7.29-5.16,12.66-5.16q7,0,11.28,4A14.21,14.21,0,0,1,68.3,28.84H58.9a6.82,6.82,0,0,0-1.8-4.75,6,6,0,0,0-4.58-1.83,6,6,0,0,0-5.28,2.55q-1.79,2.55-1.79,8.28v1c0,3.87.59,6.64,1.77,8.33A6.11,6.11,0,0,0,52.59,45ZM93.68,24.27A26.56,26.56,0,0,0,90.07,24q-5.68,0-7.45,3.85V52.38h-10V14.87h9.46l.28,4.47q3-5.16,8.36-5.16a10.49,10.49,0,0,1,3.11.45ZM97,5.17a4.94,4.94,0,0,1,1.5-3.71,6.49,6.49,0,0,1,8.2,0,4.89,4.89,0,0,1,1.53,3.71,5,5,0,0,1-1.54,3.74,6.42,6.42,0,0,1-8.15,0A4.91,4.91,0,0,1,97,5.17Zm10.64,47.21H97.6V14.87h10.05ZM148.25,34q0,8.67-3.94,13.89a12.6,12.6,0,0,1-10.62,5.22,11.66,11.66,0,0,1-9.19-4V66.81h-10V14.87h9.29l.35,3.68a11.77,11.77,0,0,1,9.5-4.37,12.71,12.71,0,0,1,10.78,5.13q3.84,5.13,3.85,14.14Zm-10-.76q0-5.25-1.86-8.1A6,6,0,0,0,131,22.26q-4.71,0-6.48,3.61V41.28c1.22,2.48,3.41,3.72,6.55,3.72Q138.22,45,138.23,33.21Zm24-27.56v9.22h6.41v7.35h-6.41V40.94a4.47,4.47,0,0,0,.79,3,4,4,0,0,0,3.06.91,15.21,15.21,0,0,0,2.94-.25v7.6a20.59,20.59,0,0,1-6.06.9q-10.54,0-10.75-10.65V22.22h-5.48V14.87h5.48V5.65Zm10.5-.48a4.94,4.94,0,0,1,1.51-3.71,6.49,6.49,0,0,1,8.2,0,4.89,4.89,0,0,1,1.53,3.71,4.92,4.92,0,0,1-1.55,3.74,6.4,6.4,0,0,1-8.14,0A4.92,4.92,0,0,1,172.69,5.17Zm10.65,47.21H173.28V14.87h10.06Zm20.87-12.23,7-25.28h10.47L209,52.38h-9.57L186.77,14.87h10.47Zm20.35-35a4.91,4.91,0,0,1,1.51-3.71A5.65,5.65,0,0,1,230.17,0a5.71,5.71,0,0,1,4.1,1.46,4.91,4.91,0,0,1,1.52,3.71,4.91,4.91,0,0,1-1.54,3.74,6.42,6.42,0,0,1-8.15,0A4.91,4.91,0,0,1,224.56,5.17ZM235.2,52.38h-10V14.87h10ZM262.35,42a3.24,3.24,0,0,0-1.82-2.9,21.08,21.08,0,0,0-5.84-1.89q-13.38-2.8-13.39-11.37a10.33,10.33,0,0,1,4.15-8.34q4.14-3.35,10.83-3.34,7.14,0,11.42,3.36A10.6,10.6,0,0,1,272,26.28H262a4.86,4.86,0,0,0-1.39-3.55,5.84,5.84,0,0,0-4.33-1.41,6,6,0,0,0-3.92,1.14,3.62,3.62,0,0,0-1.39,2.92,3.08,3.08,0,0,0,1.58,2.68,16.13,16.13,0,0,0,5.32,1.77,44.27,44.27,0,0,1,6.31,1.68q7.94,2.91,7.94,10.09a9.78,9.78,0,0,1-4.4,8.3q-4.41,3.18-11.37,3.18a19.87,19.87,0,0,1-8.38-1.68,14,14,0,0,1-5.73-4.62,10.68,10.68,0,0,1-2.08-6.32h9.49a5.27,5.27,0,0,0,2,4.09A7.84,7.84,0,0,0,256.52,46a7.28,7.28,0,0,0,4.36-1.09A3.4,3.4,0,0,0,262.35,42ZM289.11,5.65v9.22h6.42v7.35h-6.42V40.94a4.47,4.47,0,0,0,.8,3,4,4,0,0,0,3,.91,15.32,15.32,0,0,0,3-.25v7.6a20.7,20.7,0,0,1-6.07.9q-10.54,0-10.75-10.65V22.22h-5.47V14.87h5.47V5.65Z"/></svg>
